<svg xmlns="http://www.w3.org/2000/svg" xmlns:xlink="http://www.w3.org/1999/xlink" version="1.1" x="0px" y="0px" viewBox="0 0 100 125" enable-background="new 0 0 100 100" xml:space="preserve"><path d="M48.232,50.155c-0.106,0-0.212,0.003-0.317,0.008c0.083-0.628,0.199-1.209,0.341-1.437c0.104-0.167,0.289-0.346,0.515-0.528  c0.511,0.787,1.267,1.652,2.125,1.652c0.777,0,1.409-0.701,1.854-1.416c0.102,0.1,0.189,0.198,0.249,0.292  c0.141,0.226,0.256,0.804,0.34,1.429c-0.018,0-0.034,0-0.051,0c-0.957,0-1.621,0.229-1.975,0.68  c-0.378,0.482-0.355,1.163-0.188,1.817c-0.129,0.034-0.242,0.056-0.325,0.056c-0.117,0-0.254-0.024-0.403-0.062  c0.166-0.652,0.187-1.33-0.19-1.811C49.854,50.383,49.189,50.155,48.232,50.155z M50.808,54.844L50.808,54.844L50.808,54.844  L50.808,54.844z M61.53,87.929l0.046,1.281l-0.637-1.112c-0.594-1.039-1.865-1.38-3.096-1.709c-0.223-0.06-0.449-0.121-0.672-0.187  c-0.161,1.047-0.374,1.838-0.637,2.24c-0.287,0.44-0.722,0.894-1.227,1.334c0.573,1.477,1.112,2.518,1.522,2.876  c1.485,1.299,5.435,2.245,6.284,2.438c0.626-0.606,3.505-3.471,4.097-5.354c0.164-0.521,0.08-1.703-0.204-3.277  c-0.566-0.11-1.083-0.257-1.497-0.455c-0.449-0.215-1.068-0.812-1.779-1.667c-0.154,0.172-0.313,0.342-0.471,0.51  C62.39,85.773,61.488,86.732,61.53,87.929z M85.133,37.686c0.075,0.071,0.15,0.142,0.225,0.213c0.905,0.859,1.842,1.748,3.004,1.748  l1.351-0.039l-1.116,0.63c-1.042,0.588-1.389,1.857-1.726,3.085c-0.035,0.131-0.071,0.263-0.108,0.394  c0.988,0.145,1.839,0.353,2.295,0.65c0.464,0.303,0.942,0.771,1.405,1.31c1.403-0.544,2.426-1.069,2.799-1.495  c1.301-1.484,2.252-5.431,2.445-6.281c-0.606-0.626-3.468-3.509-5.349-4.103c-0.12-0.038-0.352-0.083-0.771-0.083  c-0.58,0-1.325,0.079-2.182,0.219c-0.126,0.757-0.309,1.459-0.571,1.991C86.611,36.372,86.003,36.984,85.133,37.686z M13.054,60.881  l-1.351,0.039l1.116-0.63c1.042-0.588,1.39-1.858,1.725-3.086c0.058-0.211,0.118-0.426,0.18-0.638  c-0.975-0.145-1.812-0.351-2.264-0.646c-0.444-0.29-0.902-0.73-1.346-1.241c-1.41,0.546-2.437,1.073-2.811,1.5  c-1.301,1.484-2.252,5.432-2.445,6.281c0.606,0.626,3.467,3.509,5.348,4.103c0.12,0.038,0.351,0.083,0.771,0.083  c0.566,0,1.29-0.074,2.121-0.209c0.126-0.788,0.312-1.523,0.584-2.074c0.206-0.414,0.74-0.97,1.509-1.606  c-0.045-0.042-0.091-0.085-0.135-0.128C15.153,61.77,14.217,60.881,13.054,60.881z M88.63,60.149l1.124,0.614l-1.316-0.021  c-1.18,0-2.111,0.912-3.013,1.794c-0.104,0.101-0.208,0.202-0.313,0.304c0.821,0.668,1.396,1.251,1.611,1.682  c0.288,0.58,0.481,1.364,0.609,2.201c0.852,0.136,1.594,0.212,2.173,0.212l0,0c0.442,0,0.683-0.048,0.807-0.088  c1.878-0.605,4.722-3.504,5.324-4.134c-0.198-0.85-1.174-4.791-2.482-6.268c-0.377-0.424-1.38-0.939-2.757-1.471  c-0.442,0.508-0.897,0.945-1.34,1.233c-0.452,0.296-1.29,0.502-2.267,0.646c0.023,0.078,0.046,0.156,0.068,0.234  C87.213,58.312,87.579,59.576,88.63,60.149z M12.786,40.378l-1.125-0.614l1.316,0.02c1.179,0,2.11-0.911,3.011-1.792  c0.164-0.16,0.33-0.322,0.499-0.479c-0.865-0.695-1.471-1.302-1.693-1.747c-0.281-0.564-0.471-1.322-0.599-2.134  c-0.836-0.132-1.565-0.206-2.137-0.206c-0.442,0-0.683,0.047-0.807,0.088c-1.878,0.605-4.722,3.504-5.324,4.134  c0.199,0.849,1.174,4.791,2.483,6.267c0.369,0.416,1.338,0.919,2.674,1.439c0.453-0.525,0.921-0.979,1.375-1.276  c0.426-0.278,1.196-0.478,2.102-0.621c-0.002-0.007-0.004-0.014-0.006-0.021C14.202,42.215,13.836,40.951,12.786,40.378z   M78.806,77.582l0.676,1.089l-1.104-0.649c-0.387-0.228-0.828-0.338-1.349-0.338c-0.601,0-1.24,0.146-1.869,0.309  c0.307,0.793,0.477,1.435,0.464,1.849c-0.03,0.96-0.457,2.215-0.962,3.38c0.872,0.671,1.567,1.095,1.987,1.185  c0.286,0.062,0.637,0.094,1.041,0.094c2.054,0,4.934-0.8,5.638-1.005c0.253-0.834,1.384-4.734,0.99-6.668  c-0.104-0.504-0.678-1.411-1.587-2.548c-0.715,0.254-1.409,0.433-1.995,0.462c-0.026,0.001-0.054,0.002-0.081,0.002  c-0.001,0-0.001,0-0.001,0c-0.471,0-1.136-0.172-1.93-0.47C78.447,75.438,78.214,76.626,78.806,77.582z M22.609,22.946l-0.675-1.089  l1.104,0.649c0.386,0.227,0.827,0.337,1.349,0.337c0.657,0,1.36-0.175,2.046-0.355c-0.356-0.884-0.553-1.594-0.539-2.042  c0.03-0.952,0.45-2.194,0.949-3.351c-0.843-0.645-1.518-1.052-1.927-1.14c-0.286-0.062-0.637-0.093-1.042-0.093  c-2.053,0-4.934,0.8-5.637,1.005c-0.253,0.834-1.384,4.735-0.99,6.668c0.101,0.494,0.654,1.374,1.53,2.478  c0.718-0.256,1.416-0.436,2.005-0.465c0.026-0.001,0.053-0.002,0.082-0.002c0.463,0,1.111,0.164,1.888,0.453  C22.997,24.917,23.158,23.832,22.609,22.946z M24.007,77.307c-0.518,0-0.956,0.109-1.341,0.334l-1.106,0.646l0.678-1.087  c0.542-0.868,0.398-1.932,0.163-2.996c-0.66,0.231-1.218,0.363-1.627,0.363c-0.021,0.008-0.052-0.001-0.077-0.002  c-0.845-0.039-1.914-0.39-2.948-0.829c-0.749,0.943-1.222,1.695-1.32,2.14c-0.426,1.928,0.639,5.846,0.878,6.684  c0.715,0.222,3.687,1.101,5.746,1.101c0.351,0,0.66-0.026,0.917-0.077c0.501-0.1,1.399-0.66,2.527-1.55  c-0.255-0.723-0.433-1.424-0.459-2.016c-0.021-0.474,0.191-1.244,0.575-2.206c-0.138-0.035-0.275-0.072-0.412-0.108  C25.468,77.508,24.711,77.307,24.007,77.307z M77.408,23.221c0.518,0,0.956-0.109,1.341-0.334l1.106-0.646l-0.679,1.087  c-0.51,0.817-0.413,1.806-0.203,2.807c0.724-0.263,1.331-0.414,1.77-0.414c0.026,0,0.053,0,0.077,0.002  c0.867,0.04,1.969,0.408,3.027,0.863c0.73-0.925,1.19-1.662,1.287-2.1c0.427-1.927-0.639-5.845-0.878-6.683  c-0.715-0.221-3.687-1.101-5.746-1.101c-0.352,0-0.659,0.026-0.917,0.077c-0.503,0.1-1.407,0.666-2.544,1.564  c0.237,0.691,0.404,1.36,0.43,1.927c0.022,0.512-0.228,1.374-0.674,2.447c0.138,0.035,0.273,0.071,0.408,0.107  C75.946,23.019,76.704,23.221,77.408,23.221z M40.688,88.151l-0.618,1.122l0.024-1.281c0.023-1.196-0.895-2.141-1.782-3.054  c-0.144-0.148-0.289-0.299-0.431-0.45c-0.656,0.795-1.228,1.351-1.652,1.56c-0.604,0.297-1.423,0.492-2.311,0.617  c-0.232,1.387-0.292,2.422-0.141,2.902c0.589,1.883,3.464,4.751,4.089,5.359c0.85-0.191,4.801-1.133,6.288-2.43  c0.415-0.361,0.962-1.419,1.544-2.919c-0.41-0.377-0.761-0.762-1.006-1.136c-0.255-0.391-0.463-1.144-0.622-2.143  c-0.106,0.03-0.212,0.061-0.317,0.091C42.531,86.74,41.265,87.103,40.688,88.151z M79.429,28.327  c0.209,1.768-0.222,3.489-1.203,4.881c0.334,0.111,0.669,0.182,1.004,0.182c0.216,0,0.428-0.029,0.632-0.085l1.234-0.343  l-0.933,0.878c-0.465,0.438-0.689,1.018-0.805,1.656c1.719-0.164,3.443,0.333,4.881,1.416c0.142,0.106,0.281,0.224,0.421,0.345  c0.847-0.67,1.418-1.233,1.605-1.613c0.876-1.768,0.78-5.828,0.749-6.699c-0.747-0.449-4.252-2.5-6.223-2.59l-0.049-0.001  c-0.369,0-0.931,0.148-1.627,0.412c0.008,0.033,0.016,0.065,0.022,0.098C79.254,27.351,79.373,27.854,79.429,28.327z M23.327,67.117  c0.086-0.113,0.172-0.218,0.259-0.318c-0.476-0.206-0.957-0.348-1.437-0.348c-0.216,0-0.428,0.028-0.632,0.085l-1.234,0.344  l0.932-0.879c0.285-0.269,0.479-0.59,0.613-0.945c-0.136,0.009-0.272,0.013-0.409,0.013c-1.514,0-2.981-0.502-4.244-1.452  c-0.173-0.131-0.345-0.276-0.515-0.429c-0.74,0.602-1.236,1.106-1.409,1.457c-0.876,1.769-0.781,5.828-0.749,6.698  c0.747,0.45,4.252,2.5,6.223,2.591l0.048,0.001c0.343,0,0.854-0.13,1.481-0.358c-0.108-0.46-0.217-0.931-0.269-1.375  C21.767,70.348,22.243,68.542,23.327,67.117z M80.003,65.055c-0.132,0-0.265-0.005-0.396-0.013c0.138,0.328,0.329,0.625,0.601,0.873  l0.943,0.866l-1.238-0.327c-0.194-0.052-0.396-0.078-0.601-0.078c-0.669,0-1.334,0.278-1.986,0.628  c0.141,0.15,0.28,0.311,0.418,0.494c1.08,1.428,1.551,3.234,1.327,5.087c-0.041,0.339-0.115,0.694-0.196,1.048  c0.783,0.305,1.401,0.476,1.779,0.476l0.051-0.001c1.971-0.096,5.472-2.154,6.217-2.605c0.03-0.871,0.114-4.932-0.765-6.697  c-0.182-0.365-0.719-0.897-1.513-1.532c-0.107,0.094-0.214,0.185-0.322,0.269C83.045,64.531,81.551,65.055,80.003,65.055z   M21.984,35.503c-0.127-0.609-0.36-1.16-0.813-1.577l-0.944-0.867l1.239,0.328c0.194,0.051,0.396,0.077,0.6,0.077  c0.54,0,1.076-0.182,1.605-0.435c0,0,0,0,0,0c-1.08-1.428-1.551-3.234-1.327-5.087c0.051-0.421,0.152-0.867,0.256-1.304  c-0.764-0.294-1.366-0.459-1.737-0.459l-0.051,0.001c-1.97,0.095-5.471,2.154-6.217,2.605c-0.029,0.871-0.114,4.932,0.766,6.697  c0.189,0.379,0.76,0.94,1.607,1.607c0.042-0.034,0.083-0.071,0.126-0.104C18.527,35.875,20.252,35.356,21.984,35.503z   M72.316,78.481c-1.479,0-2.879-0.444-4.047-1.286c-0.03-0.021-0.056-0.042-0.084-0.063c-0.117,0.479-0.139,0.959,0.01,1.436  l0.382,1.224l-0.907-0.905c-0.565-0.563-1.324-0.746-2.156-0.805c0.04,0.18,0.076,0.366,0.103,0.567  c0.228,1.776-0.261,3.578-1.375,5.074c-0.03,0.042-0.065,0.083-0.098,0.125c0.684,0.839,1.256,1.402,1.64,1.585  c0.934,0.445,2.73,0.69,5.059,0.69l0,0c0.758,0,1.37-0.026,1.65-0.041c0.438-0.753,2.437-4.289,2.498-6.261  c0.011-0.348-0.148-0.927-0.442-1.669c-0.391,0.102-0.785,0.197-1.162,0.251C73.03,78.455,72.671,78.481,72.316,78.481z   M29.099,22.046c1.429,0,2.781,0.418,3.924,1.204c0.248-0.658,0.365-1.321,0.16-1.977l-0.382-1.223l0.907,0.905  c0.548,0.547,1.279,0.734,2.081,0.798c-0.189-1.735,0.296-3.488,1.384-4.949c0.077-0.104,0.16-0.207,0.245-0.309  c-0.705-0.871-1.293-1.454-1.685-1.641c-0.934-0.445-2.731-0.69-5.059-0.69c-0.757,0-1.37,0.026-1.65,0.041  c-0.438,0.753-2.436,4.289-2.498,6.261c-0.012,0.377,0.174,1.025,0.52,1.862c0.332-0.083,0.664-0.16,0.983-0.206  C28.385,22.072,28.745,22.046,29.099,22.046z M35.855,78.779c0.034-0.304,0.087-0.579,0.153-0.838  c-0.997,0.041-1.865,0.203-2.488,0.83l-0.904,0.908l0.377-1.225c0.176-0.572,0.109-1.148-0.077-1.722  c-0.048,0.036-0.092,0.072-0.143,0.108c-1.164,0.833-2.557,1.273-4.03,1.273c-0.361,0-0.728-0.026-1.089-0.08  c-0.139-0.021-0.28-0.048-0.423-0.077c-0.376,0.92-0.58,1.631-0.562,2.032c0.087,1.971,2.132,5.48,2.58,6.228  c0.224,0.009,0.66,0.021,1.209,0.021c1.475,0,4.15-0.098,5.491-0.759c0.36-0.178,0.884-0.698,1.509-1.47  c-0.049-0.061-0.1-0.12-0.146-0.18C36.174,82.353,35.656,80.559,35.855,78.779z M68.762,20.162l-0.378,1.225  c-0.233,0.756-0.039,1.521,0.292,2.277c1.157-0.818,2.537-1.251,3.994-1.251c0.361,0,0.729,0.027,1.09,0.081  c0.14,0.021,0.282,0.047,0.425,0.078c0.441-1.038,0.682-1.836,0.662-2.272c-0.088-1.973-2.132-5.481-2.58-6.228  c-0.225-0.009-0.659-0.022-1.209-0.022c-1.476,0-4.15,0.099-5.491,0.76c-0.388,0.191-0.966,0.779-1.656,1.653  c0.066,0.078,0.131,0.157,0.192,0.235c1.139,1.479,1.656,3.272,1.457,5.051c-0.006,0.05-0.015,0.096-0.021,0.145  c0.926-0.053,1.729-0.232,2.318-0.823L68.762,20.162z M18.601,51.959c0.153-0.069,0.301-0.127,0.447-0.18  c-0.508-0.747-1.094-1.387-1.931-1.591l-1.245-0.302l1.242-0.312c0.599-0.15,1.067-0.525,1.469-1.002  c-1.594-0.72-2.857-2.033-3.562-3.718c-0.104-0.247-0.193-0.513-0.278-0.783c-0.934,0.143-1.612,0.325-1.939,0.538  c-1.653,1.08-3.631,4.625-4.046,5.392c0.415,0.766,2.395,4.312,4.046,5.391c0.347,0.227,1.09,0.419,2.119,0.565  c0.022-0.059,0.042-0.119,0.065-0.176C15.685,54.048,16.967,52.691,18.601,51.959z M82.814,48.569  c-0.027,0.012-0.054,0.021-0.081,0.033c0.417,0.502,0.902,0.898,1.527,1.05l1.244,0.303l-1.242,0.312  c-0.799,0.201-1.366,0.801-1.854,1.513c0.104,0.038,0.21,0.079,0.319,0.126c1.644,0.708,2.945,2.047,3.665,3.769  c0.075,0.181,0.144,0.374,0.208,0.569c1.024-0.146,1.765-0.338,2.11-0.563c1.652-1.079,3.632-4.625,4.046-5.391  c-0.415-0.767-2.395-4.312-4.046-5.392c-0.349-0.228-1.098-0.421-2.136-0.567c-0.048,0.143-0.097,0.283-0.15,0.417  C85.73,46.479,84.448,47.836,82.814,48.569z M52.576,82.361c-0.101-0.224-0.181-0.437-0.249-0.645  c-0.65,0.473-1.188,1.022-1.37,1.775l-0.302,1.245l-0.312-1.243c-0.173-0.688-0.642-1.203-1.223-1.644  c-0.049,0.14-0.103,0.281-0.167,0.428c-0.714,1.641-2.058,2.938-3.782,3.65c-0.158,0.065-0.324,0.125-0.493,0.182  c0.144,0.958,0.328,1.655,0.544,1.986c1.079,1.652,4.625,3.632,5.391,4.046c0.767-0.415,4.312-2.395,5.391-4.046  c0.224-0.343,0.414-1.08,0.56-2.093c-0.049-0.018-0.1-0.034-0.146-0.053C54.682,85.265,53.317,83.99,52.576,82.361z M50.421,16.349  l0.302-1.246l0.312,1.243c0.196,0.782,0.775,1.341,1.467,1.822c0.723-1.602,2.046-2.869,3.741-3.57  c0.198-0.082,0.408-0.155,0.622-0.224c-0.146-1.06-0.341-1.83-0.571-2.183c-1.08-1.653-4.625-3.631-5.392-4.046  c-0.766,0.415-4.312,2.395-5.391,4.046c-0.243,0.372-0.446,1.204-0.596,2.355c0.027,0.01,0.056,0.02,0.083,0.03  c1.735,0.686,3.1,1.96,3.841,3.59c0.013,0.028,0.022,0.055,0.035,0.083C49.603,17.749,50.222,17.169,50.421,16.349z M31.47,73.687  c-0.686-1.735-0.688-3.602-0.005-5.257c0.015-0.035,0.03-0.066,0.045-0.1c-0.005,0.002-0.009,0.004-0.014,0.006  c-0.771,0.294-1.583,0.442-2.414,0.442c-0.966,0-1.922-0.199-2.841-0.591c-0.438-0.188-0.887-0.443-1.321-0.69  c-0.244-0.14-0.491-0.279-0.739-0.409c-0.118,0.126-0.234,0.261-0.35,0.412c-0.984,1.294-1.416,2.937-1.216,4.627  c0.052,0.437,0.161,0.901,0.277,1.393c0.247,1.046,0.521,2.204,0.218,3.262c0.279-0.072,0.577-0.107,0.898-0.107  c0.787,0,1.585,0.213,2.356,0.418c0.487,0.13,0.948,0.253,1.383,0.317c1.675,0.247,3.343-0.14,4.659-1.082  c0.096-0.068,0.185-0.138,0.271-0.207c-0.165-0.367-0.359-0.731-0.552-1.092C31.889,74.586,31.645,74.13,31.47,73.687z   M75.138,31.654c0.438,0.187,0.887,0.443,1.321,0.69c0.384,0.219,0.774,0.438,1.167,0.621c0.952-1.284,1.371-2.9,1.175-4.564  c-0.052-0.437-0.162-0.901-0.278-1.393c-0.247-1.046-0.521-2.205-0.217-3.262c-0.279,0.072-0.577,0.107-0.897,0.107  c-0.787,0-1.585-0.212-2.356-0.418c-0.488-0.13-0.949-0.253-1.384-0.317c-1.675-0.248-3.342,0.139-4.659,1.082  c-0.02,0.015-0.037,0.029-0.056,0.043c0.098,0.191,0.198,0.381,0.3,0.57c0.235,0.442,0.479,0.898,0.654,1.342  c0.688,1.735,0.688,3.602,0.006,5.256c-0.015,0.035-0.03,0.066-0.045,0.1c0.005-0.002,0.009-0.004,0.015-0.006  C71.551,30.87,73.429,30.924,75.138,31.654z M19.596,47.056c0.255-0.431,0.519-0.876,0.807-1.256  c1.074-1.415,2.574-2.353,4.242-2.677c-1.271-1.076-2.115-2.591-2.38-4.313c-0.073-0.471-0.093-0.987-0.112-1.487  c-0.015-0.395-0.031-0.793-0.071-1.18c-0.003,0-0.006-0.001-0.01-0.001c-1.62-0.176-3.244,0.301-4.59,1.346  c-0.348,0.27-0.689,0.604-1.05,0.957c-0.768,0.751-1.62,1.584-2.682,1.87c0.784,0.772,1.115,1.915,1.414,2.947  c0.141,0.485,0.273,0.942,0.443,1.349c0.656,1.569,1.839,2.788,3.332,3.432c0.012,0.005,0.023,0.009,0.036,0.014  C19.192,47.736,19.395,47.394,19.596,47.056z M81.782,52.785c-0.256,0.431-0.52,0.876-0.808,1.256  c-1.074,1.415-2.574,2.354-4.241,2.678c1.271,1.076,2.114,2.59,2.38,4.313c0.072,0.47,0.093,0.987,0.111,1.487  c0.025,0.635,0.05,1.281,0.179,1.87c1.602,0.158,3.201-0.317,4.53-1.349c0.347-0.271,0.688-0.604,1.049-0.956  c0.769-0.752,1.62-1.585,2.683-1.871c-0.784-0.772-1.115-1.916-1.414-2.948c-0.141-0.484-0.272-0.942-0.442-1.348  c-0.656-1.569-1.839-2.788-3.332-3.433c-0.145-0.062-0.282-0.112-0.419-0.159C81.964,52.479,81.873,52.633,81.782,52.785z   M24.855,32.381c0.432-0.253,0.878-0.516,1.314-0.708c1.699-0.752,3.576-0.831,5.252-0.217c0.147,0.054,0.285,0.112,0.417,0.171  c-0.05-0.104-0.1-0.211-0.147-0.324c-0.688-1.652-0.693-3.519-0.013-5.256c0.173-0.444,0.416-0.9,0.649-1.343  c0.151-0.285,0.303-0.573,0.441-0.863c-1.313-0.943-2.975-1.332-4.648-1.091c-0.436,0.063-0.897,0.185-1.386,0.314  c-0.769,0.203-1.564,0.413-2.348,0.413c-0.325,0-0.626-0.036-0.908-0.109c0.301,1.058,0.024,2.215-0.226,3.26  c-0.117,0.491-0.228,0.954-0.281,1.391c-0.204,1.689,0.223,3.333,1.204,4.629c0.022,0.03,0.045,0.056,0.068,0.085  C24.449,32.619,24.653,32.5,24.855,32.381z M75.209,68.168c-0.943,0.418-1.926,0.629-2.923,0.629c-0.8,0-1.584-0.139-2.33-0.411  c-0.147-0.055-0.285-0.112-0.417-0.172c0.051,0.104,0.1,0.211,0.146,0.324c0.688,1.652,0.693,3.52,0.014,5.257  c-0.173,0.443-0.415,0.901-0.649,1.343c-0.236,0.447-0.476,0.9-0.656,1.355c0.078,0.063,0.159,0.126,0.245,0.188  c1.314,0.947,2.979,1.338,4.656,1.096c0.436-0.062,0.896-0.185,1.385-0.313c0.77-0.203,1.564-0.413,2.349-0.413  c0.324,0,0.626,0.036,0.907,0.109c-0.3-1.059-0.023-2.215,0.226-3.26c0.117-0.491,0.228-0.955,0.281-1.392  c0.204-1.688-0.224-3.333-1.204-4.629c-0.158-0.21-0.318-0.392-0.482-0.557c-0.078,0.046-0.155,0.091-0.233,0.137  C76.091,67.713,75.645,67.976,75.209,68.168z M54.81,19.635c1.486,1.128,2.455,2.724,2.729,4.493  c0.076,0.496,0.085,0.932,0.057,1.349c0.181-0.345,0.399-0.688,0.695-1.046c1.14-1.38,2.789-2.256,4.643-2.465  c0.426-0.048,0.878-0.052,1.305-0.052l0.373,0c0.097,0,0.19-0.001,0.286-0.002c0.012-0.077,0.024-0.153,0.033-0.234  c0.181-1.615-0.292-3.247-1.33-4.595c-0.268-0.349-0.601-0.691-0.953-1.053c-0.749-0.771-1.578-1.625-1.86-2.689  c-0.774,0.782-1.919,1.109-2.952,1.404c-0.485,0.139-0.943,0.27-1.351,0.438c-1.571,0.651-2.794,1.83-3.442,3.319  c-0.003,0.005-0.004,0.009-0.006,0.014c0.171,0.105,0.345,0.208,0.518,0.311C53.984,19.083,54.43,19.347,54.81,19.635z   M47.824,81.014c-0.431-0.255-0.876-0.52-1.255-0.807c-1.486-1.129-2.456-2.725-2.729-4.494c-0.077-0.495-0.085-0.932-0.057-1.349  c-0.181,0.344-0.4,0.688-0.696,1.046c-1.14,1.38-2.789,2.255-4.643,2.465c-0.425,0.048-0.878,0.052-1.305,0.052h-0.374  c-0.033,0-0.064,0.001-0.097,0.001c-0.083,0.282-0.146,0.582-0.185,0.922c-0.181,1.615,0.292,3.247,1.33,4.595  c0.269,0.349,0.601,0.69,0.953,1.053c0.749,0.771,1.579,1.626,1.861,2.689c0.775-0.782,1.919-1.108,2.953-1.404  c0.485-0.139,0.943-0.27,1.35-0.438c1.572-0.65,2.794-1.829,3.443-3.319c0.083-0.191,0.148-0.373,0.204-0.552  C48.332,81.315,48.077,81.163,47.824,81.014z M79.135,38.739c-0.255,1.814-1.149,3.41-2.517,4.511  c1.694,0.299,3.226,1.232,4.324,2.656c0.291,0.377,0.559,0.82,0.817,1.248c0.188,0.312,0.379,0.627,0.583,0.925  c0.07-0.029,0.14-0.056,0.213-0.088c1.482-0.665,2.648-1.901,3.281-3.48c0.164-0.409,0.29-0.869,0.424-1.356  c0.283-1.037,0.598-2.185,1.37-2.969c-1.066-0.271-1.931-1.09-2.709-1.83c-0.366-0.347-0.712-0.676-1.062-0.94  c-1.352-1.018-2.976-1.471-4.582-1.281c-0.03,0.366-0.041,0.741-0.05,1.113C79.215,37.75,79.201,38.267,79.135,38.739z   M22.15,62.592c0.013-0.5,0.026-1.018,0.092-1.489c0.255-1.814,1.15-3.411,2.517-4.512c-1.695-0.299-3.226-1.232-4.325-2.656  c-0.291-0.377-0.558-0.819-0.817-1.248c-0.072-0.119-0.145-0.239-0.218-0.358c-0.175,0.058-0.354,0.124-0.541,0.208  c-1.483,0.665-2.648,1.9-3.282,3.479c-0.164,0.408-0.29,0.868-0.423,1.355c-0.284,1.037-0.598,2.186-1.371,2.969  c1.067,0.271,1.931,1.091,2.709,1.83c0.366,0.348,0.711,0.676,1.063,0.94c1.315,0.989,2.888,1.441,4.453,1.291  C22.118,63.828,22.135,63.205,22.15,62.592z M37.491,21.785c0.37,0,0.764,0.006,1.146,0.048c1.855,0.203,3.507,1.072,4.652,2.448  c0.259,0.312,0.461,0.613,0.63,0.914c-0.007-0.317,0.009-0.648,0.062-1.013c0.26-1.771,1.217-3.375,2.694-4.514  c0.377-0.291,0.819-0.559,1.248-0.817c0.137-0.083,0.275-0.166,0.412-0.25c-0.024-0.057-0.045-0.113-0.072-0.171  c-0.673-1.479-1.915-2.638-3.497-3.263c-0.41-0.162-0.871-0.285-1.359-0.416c-1.038-0.278-2.188-0.586-2.976-1.355  c-0.265,1.069-1.079,1.936-1.815,2.719c-0.346,0.368-0.672,0.715-0.935,1.068c-1.013,1.36-1.458,2.994-1.256,4.601  c0.123,0.002,0.245,0.004,0.369,0.004L37.491,21.785z M64.582,78.054l-0.692,0.003c-0.371,0-0.767-0.006-1.148-0.048  c-1.855-0.203-3.508-1.072-4.652-2.448c-0.259-0.312-0.461-0.613-0.63-0.913c0.007,0.316-0.009,0.647-0.062,1.013  c-0.26,1.771-1.216,3.374-2.693,4.515c-0.377,0.29-0.82,0.558-1.248,0.816c-0.193,0.117-0.389,0.234-0.579,0.355  c0.069,0.243,0.157,0.49,0.276,0.752c0.673,1.479,1.915,2.639,3.497,3.264c0.409,0.161,0.871,0.284,1.358,0.415  c1.039,0.278,2.188,0.586,2.977,1.354c0.265-1.068,1.079-1.936,1.814-2.719c0.346-0.368,0.672-0.715,0.935-1.068  c1.017-1.364,1.462-3.003,1.255-4.615c-0.031-0.242-0.075-0.463-0.129-0.673C64.767,78.056,64.675,78.054,64.582,78.054z   M32.598,59.492c0.155-0.27,0.837-0.791,1.764-1.415c-0.509-0.666-0.882-1.234-0.965-1.441c-0.052-0.129-0.139-0.569-0.219-1.163  l-4.699,0.838c-0.242,0.043-0.47,0.088-0.689,0.132c-0.651,0.13-1.267,0.252-1.956,0.252c-0.042,0-0.084-0.004-0.126-0.005  c-0.16,0.1-0.32,0.208-0.485,0.337c-1.281,1.001-2.116,2.479-2.354,4.164c-0.061,0.436-0.073,0.912-0.086,1.418  c-0.027,1.074-0.057,2.264-0.62,3.21c1.096,0.005,2.099,0.576,3.068,1.129c0.438,0.249,0.853,0.485,1.257,0.658  c1.558,0.665,3.266,0.716,4.781,0.139c0.277-0.105,0.518-0.223,0.743-0.351c0.317-0.479,0.675-0.88,1.067-1.315  c0.115-0.127,0.233-0.26,0.355-0.398C32.844,63.988,32.09,60.376,32.598,59.492z M68.93,39.682  c-0.155,0.271-0.841,0.793-1.771,1.419c0.55,0.71,0.958,1.329,1.046,1.545c0.057,0.141,0.154,0.652,0.241,1.328  c0.815-0.16,1.483-0.261,1.86-0.261c0.126,0,0.226,0.011,0.307,0.033c0.087,0.024,0.186,0.073,0.29,0.14l1.996-0.355  c0.242-0.043,0.47-0.088,0.689-0.132c0.651-0.129,1.267-0.251,1.955-0.251c0.042,0,0.085,0.004,0.127,0.004  c0.159-0.099,0.319-0.208,0.484-0.337c1.28-1,2.116-2.479,2.353-4.164c0.062-0.436,0.074-0.913,0.087-1.418  c0.027-1.075,0.057-2.264,0.619-3.209c-1.096-0.005-2.099-0.576-3.068-1.129c-0.438-0.25-0.853-0.485-1.257-0.658  c-1.558-0.665-3.266-0.716-4.78-0.139c-0.276,0.105-0.519,0.223-0.743,0.35c-0.316,0.48-0.676,0.88-1.067,1.316  c-0.028,0.031-0.057,0.063-0.084,0.094C68.778,35.656,69.402,38.856,68.93,39.682z M67.267,58.145  c0.874,0.594,1.514,1.087,1.663,1.348c0.539,0.939-0.322,5.131-0.971,6.59c0.035,0.039,0.072,0.079,0.106,0.117  c0.264,0.291,0.513,0.567,0.744,0.861c0.397,0.286,0.818,0.53,1.364,0.73c1.523,0.558,3.229,0.484,4.778-0.201  c0.402-0.178,0.814-0.42,1.25-0.676c0.963-0.565,1.958-1.15,3.053-1.17c-0.574-0.938-0.621-2.127-0.662-3.2  c-0.02-0.505-0.038-0.981-0.105-1.416c-0.259-1.681-1.113-3.148-2.407-4.133c-0.077-0.059-0.153-0.111-0.229-0.164  c-0.101,0.006-0.202,0.013-0.304,0.013c-0.67,0-1.274-0.115-1.914-0.236c-0.217-0.041-0.442-0.084-0.683-0.125l-4.613-0.784  c-0.099,0.635-0.208,1.126-0.283,1.304C67.98,57.172,67.684,57.609,67.267,58.145z M26.425,32.251  c-0.403,0.178-0.814,0.42-1.25,0.676c-0.962,0.565-1.958,1.15-3.053,1.169c0.575,0.938,0.621,2.127,0.663,3.201  c0.02,0.504,0.038,0.98,0.105,1.415c0.259,1.681,1.113,3.149,2.407,4.133c0.077,0.059,0.153,0.112,0.229,0.164  c0.101-0.005,0.203-0.012,0.304-0.012c0.67,0,1.274,0.115,1.914,0.236c0.218,0.041,0.443,0.084,0.683,0.125l2.42,0.412  c0.022-0.009,0.045-0.019,0.066-0.024c0.08-0.022,0.181-0.033,0.306-0.033c0.396,0,1.112,0.112,1.984,0.286  c0.111-0.833,0.251-1.504,0.343-1.719c0.074-0.174,0.385-0.628,0.817-1.181c-0.928-0.625-1.612-1.147-1.768-1.417  c-0.479-0.834,0.146-4.233,0.747-6.005c-0.01-0.012-0.021-0.024-0.032-0.036c-0.264-0.291-0.512-0.567-0.744-0.861  c-0.398-0.285-0.818-0.53-1.364-0.729C29.68,31.492,27.975,31.566,26.425,32.251z M42.233,66.049  c-0.606,0.896-1.11,1.552-1.375,1.704c-0.208,0.119-0.523,0.175-0.994,0.175c0,0,0,0,0,0c-1.636,0-5.457-0.826-6.036-1.405  c-0.038-0.038-0.08-0.104-0.126-0.19c-0.051,0.057-0.103,0.114-0.152,0.17c-0.625,0.695-1.119,1.244-1.5,2.169  c-0.62,1.503-0.617,3.201,0.009,4.783c0.162,0.409,0.387,0.83,0.625,1.275c0.507,0.948,1.069,1.998,1.045,3.1  c0.958-0.535,2.132-0.535,3.037-0.535h0.374c0.409,0,0.841-0.004,1.233-0.048c1.69-0.191,3.191-0.986,4.226-2.239  c0.636-0.77,0.888-1.462,1.206-2.339c0.078-0.214,0.159-0.436,0.249-0.668l0.188-0.485l0.731-4.298  c-0.703-0.098-1.283-0.217-1.532-0.322C43.292,66.831,42.817,66.507,42.233,66.049z M58.161,32.389  c0.14,0.06,0.571,0.352,1.11,0.769c0.616-0.913,1.13-1.583,1.397-1.737c0.208-0.119,0.523-0.174,0.994-0.174  c1.773,0,5.497,0.866,6.036,1.405c0.076,0.077,0.172,0.263,0.276,0.524c0.555-0.621,1.002-1.155,1.353-2.006  c0.62-1.502,0.616-3.201-0.009-4.782c-0.162-0.409-0.387-0.83-0.625-1.276c-0.507-0.949-1.068-1.999-1.046-3.1  c-0.958,0.535-2.132,0.535-3.037,0.535l-0.373,0c-0.409,0-0.841,0.004-1.233,0.048c-1.69,0.191-3.191,0.986-4.226,2.239  c-0.637,0.77-0.888,1.462-1.207,2.339c-0.077,0.214-0.158,0.436-0.247,0.668l-0.188,0.486l-0.633,3.721  C57.263,32.148,57.897,32.276,58.161,32.389z M61.616,67.921L61.616,67.921c-0.446,0-0.747-0.053-0.947-0.168  c-0.265-0.152-0.771-0.81-1.378-1.709c-0.684,0.525-1.275,0.913-1.496,1.002c-0.196,0.079-0.735,0.178-1.414,0.26  c0.199,1.039,0.303,1.841,0.224,2.131c-0.001,0.003-0.003,0.008-0.004,0.011l0.462,2.589l0.046,0.119  c0.09,0.229,0.171,0.449,0.248,0.661c0.323,0.877,0.579,1.57,1.219,2.34c1.039,1.249,2.543,2.038,4.234,2.224  c0.353,0.038,0.727,0.044,1.08,0.044l0.692-0.003c0.998,0,2.025,0.049,2.876,0.521c-0.026-1.1,0.53-2.151,1.032-3.101  c0.236-0.446,0.46-0.867,0.62-1.277c0.619-1.584,0.616-3.283-0.009-4.782c-0.384-0.922-0.879-1.467-1.505-2.157  c-0.005-0.005-0.009-0.011-0.014-0.015C66.768,67.128,63.229,67.921,61.616,67.921z M33.828,32.651  c0.51-0.51,4.375-1.399,6.083-1.399c0.446,0,0.747,0.054,0.948,0.168c0.275,0.158,0.812,0.865,1.451,1.818  c0.684-0.525,1.275-0.914,1.496-1.002c0.182-0.073,0.653-0.163,1.257-0.241l-0.747-4.191l-0.046-0.119  c-0.09-0.23-0.171-0.45-0.249-0.661c-0.323-0.877-0.579-1.57-1.219-2.34c-1.04-1.249-2.543-2.039-4.234-2.224  c-0.352-0.039-0.725-0.043-1.077-0.043l-0.697,0.002c-0.998,0-2.024-0.048-2.875-0.521C33.946,23,33.39,24.051,32.887,25  c-0.236,0.446-0.459,0.867-0.619,1.277c-0.62,1.584-0.617,3.282,0.008,4.782c0.347,0.832,0.785,1.357,1.327,1.959  C33.682,32.849,33.759,32.721,33.828,32.651z M26.813,49.587c0-0.606,1.946-3.95,3.321-5.296l-1.813-0.309  c-0.244-0.041-0.473-0.085-0.694-0.127c-0.636-0.121-1.185-0.225-1.796-0.225c-0.278,0-0.552,0.021-0.838,0.066  c-1.606,0.249-3.057,1.131-4.086,2.486c-0.267,0.351-0.51,0.761-0.767,1.195c-0.548,0.925-1.155,1.949-2.108,2.5  c0.958,0.543,1.573,1.562,2.128,2.481c0.261,0.433,0.507,0.84,0.776,1.188c1.04,1.347,2.498,2.219,4.105,2.454  c0.271,0.04,0.53,0.06,0.792,0.06c0.627,0,1.185-0.111,1.832-0.24c0.224-0.044,0.456-0.09,0.702-0.134l2.254-0.401  C29.303,54.437,26.813,50.417,26.813,49.587z M74.714,49.587c0,0.735-2.867,5.507-4.101,5.841c-0.014,0.004-0.03,0.005-0.044,0.008  l2.487,0.423c0.243,0.041,0.474,0.085,0.694,0.127c0.636,0.121,1.185,0.226,1.796,0.226c0.277,0,0.552-0.021,0.838-0.066  c1.606-0.248,3.058-1.132,4.086-2.486c0.266-0.351,0.51-0.761,0.767-1.195c0.549-0.925,1.155-1.949,2.108-2.5  c-0.958-0.543-1.572-1.562-2.128-2.482c-0.261-0.432-0.508-0.84-0.776-1.188c-1.039-1.347-2.497-2.218-4.104-2.454  c-0.271-0.04-0.53-0.059-0.793-0.059c-0.627,0-1.185,0.111-1.832,0.24c-0.223,0.044-0.455,0.09-0.701,0.134l-1.487,0.265  C72.877,45.808,74.714,48.874,74.714,49.587z M50.764,73.537c-0.659,0-4.558-2.303-5.601-3.669l-0.412,2.42  c-0.042,0.243-0.085,0.474-0.127,0.694c-0.174,0.919-0.312,1.645-0.159,2.634c0.248,1.606,1.131,3.058,2.486,4.086  c0.351,0.267,0.761,0.51,1.195,0.768c0.925,0.548,1.949,1.155,2.5,2.107c0.543-0.957,1.562-1.572,2.482-2.128  c0.432-0.261,0.84-0.507,1.188-0.776c1.347-1.039,2.218-2.497,2.454-4.104c0.145-0.987,0.001-1.71-0.181-2.625  c-0.044-0.223-0.09-0.455-0.134-0.701l-0.366-2.055C54.79,71.551,51.505,73.537,50.764,73.537z M50.763,25.637  c0.653,0,4.487,2.261,5.572,3.631l0.292-1.715c0.041-0.243,0.085-0.473,0.127-0.693c0.174-0.919,0.312-1.645,0.159-2.635  c-0.248-1.606-1.132-3.057-2.486-4.086c-0.351-0.266-0.762-0.509-1.195-0.767c-0.925-0.548-1.949-1.155-2.5-2.108  c-0.543,0.958-1.562,1.573-2.482,2.128c-0.432,0.261-0.84,0.507-1.188,0.775c-1.346,1.04-2.218,2.498-2.454,4.105  c-0.145,0.988-0.001,1.71,0.181,2.625c0.044,0.223,0.091,0.455,0.134,0.701l0.292,1.64C46.308,27.884,49.975,25.637,50.763,25.637z   M51.8,32.413c0.184-0.232,0.616-0.541,2.248-0.541c0.525,0,1.11,0.035,1.674,0.088c0.22-1.083,0.33-1.843,0.271-2.057  c-0.077-0.289-0.869-1.052-2.461-2.11c-1.383-0.918-2.547-1.506-2.773-1.524c-0.584,0.004-4.985,2.744-5.226,3.634  c-0.057,0.21,0.049,0.952,0.263,2.012c0.609-0.058,1.275-0.097,1.891-0.097c1.83,0,2.291,0.33,2.479,0.578  c0.25,0.331,0.526,1.655,0.783,3.252C51.238,34.057,51.544,32.738,51.8,32.413z M53.915,67.465L53.915,67.465  c-1.83,0-2.291-0.33-2.479-0.578c-0.249-0.331-0.527-1.655-0.784-3.253c-0.29,1.592-0.595,2.91-0.852,3.235  c-0.183,0.232-0.616,0.542-2.248,0.542l0,0c-0.555,0-1.176-0.038-1.768-0.098c-0.206,1.031-0.308,1.75-0.252,1.957  c0.078,0.288,0.87,1.053,2.461,2.109c1.379,0.916,2.541,1.504,2.771,1.524c0.597-0.012,4.987-2.745,5.228-3.634  c0.055-0.203-0.042-0.898-0.24-1.897C55.16,67.428,54.514,67.465,53.915,67.465z M68.046,49.005c-0.33,0.25-1.654,0.527-3.252,0.784  c1.591,0.291,2.909,0.595,3.235,0.852c0.604,0.476,0.607,2.327,0.451,3.921c0.811,0.161,1.469,0.265,1.826,0.265l0,0  c0.101,0,0.137-0.009,0.141-0.01c0.288-0.078,1.053-0.87,2.109-2.461c0.918-1.383,1.507-2.547,1.524-2.773  c-0.004-0.584-2.744-4.985-3.634-5.227c-0.004-0.001-0.04-0.01-0.141-0.01c-0.353,0-0.996,0.101-1.789,0.258  C68.686,46.286,68.721,48.496,68.046,49.005z M33.572,48.642c-0.616-0.486-0.608-2.399-0.442-4.014  c-0.85-0.171-1.54-0.281-1.91-0.281c-0.1,0-0.137,0.009-0.141,0.01c-0.288,0.078-1.052,0.87-2.109,2.462  c-0.918,1.382-1.507,2.547-1.524,2.773c0.004,0.584,2.744,4.985,3.634,5.226c0.004,0.001,0.041,0.011,0.141,0.011  c0.362,0,1.03-0.106,1.852-0.271c-0.157-1.665-0.176-3.783,0.483-4.28c0.331-0.25,1.655-0.527,3.252-0.784  C35.216,49.203,33.897,48.898,33.572,48.642z M63.689,38.166c0.029-0.003,0.06-0.005,0.091-0.005c0.757,0,2.005,1.253,2.985,2.446  c0.903-0.601,1.506-1.051,1.615-1.241c0.148-0.259,0.129-1.359-0.249-3.232c-0.328-1.627-0.735-2.866-0.884-3.039  c-0.319-0.315-3.75-1.217-5.585-1.217c-0.483,0-0.643,0.069-0.68,0.09c-0.188,0.108-0.629,0.696-1.218,1.581  c1.308,1.071,2.896,2.609,2.779,3.446c-0.057,0.41-0.797,1.543-1.745,2.854C62.131,38.931,63.278,38.214,63.689,38.166z   M37.912,61.116c-0.029,0.004-0.059,0.006-0.09,0.006l0,0c-0.779,0-2.077-1.326-3.07-2.55c-0.898,0.598-1.496,1.046-1.605,1.235  c-0.148,0.259-0.129,1.358,0.249,3.231c0.328,1.627,0.736,2.866,0.883,3.039c0.32,0.314,3.751,1.217,5.586,1.217c0,0,0,0,0,0  c0.483,0,0.642-0.069,0.679-0.091c0.186-0.106,0.619-0.682,1.198-1.551c-1.289-1.065-2.8-2.551-2.686-3.368  c0.056-0.402,0.771-1.502,1.695-2.783c-0.007-0.007-0.013-0.015-0.019-0.021C39.431,60.377,38.316,61.069,37.912,61.116z   M38.051,37.89c0.036,0,0.071,0.002,0.105,0.007c0.41,0.057,1.542,0.797,2.854,1.746c-0.92-1.331-1.636-2.479-1.685-2.89  c-0.091-0.771,1.241-2.101,2.49-3.121c-0.616-0.93-1.079-1.551-1.271-1.662c-0.035-0.02-0.183-0.084-0.633-0.084  c-1.729,0-5.277,0.907-5.638,1.216c-0.41,0.417-1.584,5.466-1.126,6.265c0.109,0.19,0.711,0.641,1.615,1.241  C35.801,39.355,37.246,37.89,38.051,37.89z M62.275,62.53c0.092,0.772-1.24,2.103-2.49,3.123c0.58,0.868,1.013,1.444,1.198,1.551  c0.035,0.02,0.183,0.084,0.633,0.084c1.729,0.001,5.277-0.907,5.639-1.216c0.409-0.416,1.584-5.466,1.126-6.265  c-0.105-0.183-0.664-0.605-1.51-1.171c-1.041,1.261-2.507,2.756-3.321,2.756c-0.036,0-0.071-0.002-0.105-0.007  c-0.41-0.057-1.543-0.798-2.854-1.745C61.511,60.971,62.228,62.119,62.275,62.53z M55.357,38.042c1.139,0,3.197,0.227,4.775,1.65  c1.033-1.412,1.744-2.483,1.786-2.782c0.107-0.77-3.332-3.651-4.006-3.939c-0.364-0.155-2.291-0.466-3.865-0.466  c-1.472,0-1.727,0.27-1.751,0.3c-0.242,0.308-0.646,2.334-1.05,4.875c0.068,0.501,0.134,1,0.193,1.48  c0.006-0.005,0.012-0.011,0.017-0.015C52.17,38.487,53.739,38.042,55.357,38.042z M50.162,60.134  c-0.091,0.149-0.201,0.272-0.297,0.357c-0.713,0.658-2.283,1.104-3.9,1.104h0c-1.135,0-3.185-0.226-4.761-1.638  c-0.888,1.229-1.482,2.144-1.52,2.416c-0.107,0.77,3.331,3.651,4.006,3.938c0.364,0.156,2.29,0.467,3.864,0.467  c1.472,0,1.727-0.271,1.751-0.301c0.243-0.308,0.646-2.334,1.05-4.875C50.286,61.105,50.222,60.61,50.162,60.134z M60.85,59.046  c1.362,0.994,2.391,1.673,2.683,1.713l0.018,0.001c0.862,0.001,3.673-3.423,3.922-4.006c0.32-0.751,0.782-5.13,0.165-5.616  c-0.308-0.242-2.334-0.646-4.875-1.049c-0.598,0.081-1.191,0.158-1.753,0.227C61.865,52.106,62.814,56.3,60.85,59.046z   M40.752,40.237c-1.363-0.994-2.392-1.673-2.683-1.713c0,0,0,0,0,0c-0.88,0-3.69,3.422-3.939,4.006  c-0.32,0.75-0.782,5.129-0.166,5.616c0.308,0.243,2.334,0.646,4.875,1.049c0.452-0.062,0.901-0.12,1.337-0.175  C39.326,47.002,38.543,42.824,40.752,40.237z M67.665,48.5c0.62-0.468,0.226-4.938-0.048-5.618c-0.293-0.73-2.995-4.089-3.837-4.089  c-0.311,0.036-1.42,0.737-2.877,1.757c1.998,2.786,0.991,7.068,0.126,8.813c-0.069,0.139-0.144,0.25-0.22,0.337  C64.212,49.281,67.275,48.794,67.665,48.5z M40.292,50.272c0.108-0.217,0.227-0.363,0.347-0.462  c-0.054-0.052-0.107-0.115-0.159-0.191c-3.275,0.412-6.166,0.878-6.543,1.163c-0.621,0.469-0.227,4.938,0.047,5.618  c0.293,0.729,2.997,4.088,3.838,4.089l0.016-0.001c0.277-0.033,1.229-0.625,2.506-1.509C38.446,56.191,39.438,51.996,40.292,50.272z   M46.021,38.078c1.618,0,3.188,0.445,3.906,1.108c0.303,0.267,0.755,0.941,0.259,1.546c-0.12,0.146-0.332,0.278-0.668,0.445  c0.239-0.029,0.482-0.051,0.735-0.062c0.137-0.005,0.274-0.008,0.409-0.008c0.126,0,0.25,0.007,0.375,0.012  c-0.453-3.95-1.042-7.896-1.378-8.342c-0.025-0.033-0.295-0.327-1.973-0.327c-1.541,0-3.334,0.249-3.645,0.374  c-0.757,0.305-4.18,3.074-4.088,3.854c0.035,0.294,0.698,1.346,1.671,2.739C43.141,38.272,44.972,38.078,46.021,38.078z   M50.77,59.892c0.414,3.305,0.884,6.233,1.171,6.613c0.025,0.034,0.295,0.327,1.974,0.327c1.541,0,3.334-0.249,3.645-0.374  c0.757-0.304,4.18-3.073,4.088-3.854c-0.034-0.288-0.672-1.305-1.615-2.659c-1.572,1.391-3.604,1.613-4.732,1.613  c-1.617,0-3.188-0.445-3.906-1.107c-0.143-0.127-0.319-0.344-0.414-0.602L50.77,59.892z M50.663,42.374  c-0.127,0-0.255,0.002-0.384,0.008c-3.211,0.13-5.198,1.906-5.684,3.501c-0.06,0.198-0.067,0.355-0.019,0.421  c0.039,0.052,0.146,0.083,0.287,0.083c0.046,0,0.088-0.003,0.118-0.007c0.436-0.271,3.096-1.864,5.381-1.956  c1.614-0.064,3.314,0.643,4.422,1.104c0.474,0.197,0.963,0.401,1.132,0.401c0.312-0.033,0.289-0.607,0.289-0.612  C56.149,43.921,53.859,42.374,50.663,42.374z M50.896,49.218c0.501,0,0.986-0.576,1.358-1.196c-0.336-0.246-0.723-0.491-1.068-0.708  c-0.082-0.052-0.162-0.103-0.24-0.152c0,0-0.332-0.193-0.638,0c-0.306,0.193-0.158,0.1-0.241,0.152  c-0.25,0.158-0.522,0.33-0.781,0.507C49.734,48.513,50.337,49.218,50.896,49.218z M51.812,51.225  c-0.22,0.28-0.204,0.736-0.085,1.218c0.582-0.233,1.271-0.576,1.747-0.837c-0.013-0.237-0.034-0.52-0.062-0.814  c-0.041-0.001-0.082-0.004-0.123-0.004C52.547,50.788,52.036,50.939,51.812,51.225z M48.642,51.914  c0.362,0.176,0.769,0.373,1.151,0.527c0.12-0.481,0.135-0.937-0.084-1.216c-0.225-0.287-0.735-0.438-1.477-0.438  c-0.131,0-0.261,0.005-0.39,0.013c-0.026,0.268-0.045,0.523-0.059,0.746c0.092,0.019,0.186,0.048,0.283,0.093  C48.246,51.722,48.44,51.815,48.642,51.914z M50.24,45.919c0,0-0.052-0.043-0.074-0.057c-0.312-0.195-0.674-0.296-1.072-0.296  c-1.064,0-2.209,0.729-2.917,1.859c-1.006,1.608-0.854,3.525,0.341,4.273c0.13,0.082,0.246,0.125,0.336,0.125  c0.172,0,0.266-0.197,0.294-0.271c0.023-0.406,0.159-2.505,0.57-3.161c0.356-0.568,1.235-1.123,2.01-1.612  c0.173-0.109,0.488-0.312,0.488-0.312s0.157-0.079,0.157-0.218S50.24,45.919,50.24,45.919z M54.585,51.774L54.585,51.774  c0.048-0.02,0.098-0.042,0.151-0.076c1.194-0.748,1.348-2.665,0.341-4.273c-0.707-1.129-1.852-1.858-2.917-1.858  c-0.397,0-0.76,0.101-1.076,0.299c-0.112,0.075-0.276,0.243-0.276,0.354c0,0.061,0.069,0.142,0.19,0.222  c0.161,0.106,0.34,0.22,0.527,0.337c0.775,0.489,1.654,1.043,2.011,1.612c0.404,0.647,0.543,2.692,0.568,3.14  C54.293,51.564,54.457,51.646,54.585,51.774z M54.137,52.222c-0.05-0.05-0.128-0.075-0.233-0.075c-0.05,0-0.093,0.006-0.119,0.011  c-0.356,0.194-2.206,1.184-2.982,1.184l0,0c-0.675-0.002-1.611-0.456-2.436-0.857c-0.198-0.097-0.388-0.188-0.562-0.269  c-0.109-0.051-0.18-0.061-0.22-0.061c-0.198,0-0.224,0.44-0.224,0.444c-0.002,0.659,0.342,1.293,0.97,1.776  c0.653,0.504,1.527,0.782,2.462,0.785h0.017c1.888,0,3.428-1.141,3.434-2.544C54.243,52.428,54.206,52.291,54.137,52.222z   M43.982,54.211c1.536,2.323,3.639,3.151,5.094,3.151c0.3,0,0.583-0.033,0.843-0.1c0.209-0.053,0.349-0.132,0.373-0.211  c0.028-0.094-0.059-0.264-0.146-0.375c-0.453-0.231-3.197-1.684-4.459-3.593c-0.891-1.349-1.163-3.158-1.343-4.355  c-0.071-0.475-0.16-1.066-0.245-1.181c-0.051-0.067-0.109-0.095-0.199-0.095c-0.185,0-0.405,0.122-0.474,0.169  C42.175,48.449,42.151,51.44,43.982,54.211z M57.702,47.116c-0.192-0.224-0.307-0.241-0.338-0.241c-0.106,0-0.229,0.178-0.288,0.301  c-0.005,0.51-0.079,3.612-1.225,5.593c-0.808,1.399-2.305,2.451-3.296,3.146c-0.394,0.275-0.882,0.619-0.947,0.747  c-0.137,0.276,0.361,0.565,0.367,0.568c0.239,0.139,0.521,0.207,0.844,0.207c1.34,0,3.42-1.252,4.803-3.646  C59.229,51.008,58.79,48.38,57.702,47.116z M41.348,40.514c-2.309,2.503-1.287,6.879-0.43,8.605  c0.093,0.189,0.198,0.302,0.279,0.302c0.116,0,0.291-0.156,0.393-0.288c0.135-0.492,1.06-3.711,2.76-5.554  c1.191-1.291,2.982-2.1,4.168-2.635c0.503-0.227,1.074-0.484,1.18-0.613c0.233-0.285-0.177-0.66-0.194-0.676  c-0.496-0.457-1.793-0.944-3.481-0.944C44.897,38.711,42.795,38.945,41.348,40.514z M57.029,43.543  c1.7,1.842,2.626,5.062,2.76,5.554c0.103,0.131,0.278,0.288,0.395,0.288c0.08,0,0.185-0.113,0.278-0.302  c0.856-1.727,1.878-6.102-0.431-8.605c-1.447-1.569-3.55-1.803-4.674-1.803c-1.688,0-2.985,0.488-3.477,0.94  c-0.021,0.02-0.433,0.395-0.198,0.68c0.105,0.129,0.676,0.386,1.179,0.613C54.047,41.443,55.839,42.252,57.029,43.543z   M60.404,50.518c-0.094-0.189-0.198-0.302-0.279-0.302c-0.115,0-0.29,0.156-0.393,0.288c-0.135,0.492-1.061,3.711-2.761,5.554  c-1.19,1.291-2.982,2.1-4.168,2.635c-0.503,0.228-1.073,0.484-1.18,0.614c-0.233,0.284,0.177,0.659,0.194,0.675  c0.495,0.457,1.793,0.944,3.481,0.944c1.124,0,3.227-0.234,4.674-1.803C62.282,56.62,61.261,52.244,60.404,50.518z M45.964,60.962  L45.964,60.962c1.689,0,2.986-0.487,3.477-0.94c0.022-0.02,0.432-0.395,0.199-0.68c-0.106-0.129-0.676-0.386-1.18-0.613  c-1.186-0.535-2.977-1.344-4.168-2.635c-1.7-1.843-2.626-5.062-2.76-5.554c-0.102-0.131-0.277-0.288-0.393-0.288  c-0.081,0-0.186,0.113-0.279,0.302c-0.857,1.727-1.878,6.103,0.43,8.605C42.738,60.728,44.84,60.962,45.964,60.962z M40.003,12.251  l-0.045-1.28l0.636,1.112c0.594,1.039,1.866,1.379,3.096,1.708c0.223,0.06,0.449,0.121,0.672,0.186  c0.161-1.046,0.373-1.837,0.636-2.24c0.287-0.439,0.722-0.893,1.227-1.333c-0.573-1.478-1.112-2.518-1.522-2.876  c-1.485-1.299-5.435-2.245-6.285-2.438c-0.625,0.607-3.504,3.472-4.096,5.354c-0.164,0.522-0.081,1.703,0.203,3.278  c0.567,0.11,1.083,0.257,1.498,0.455c0.449,0.214,1.068,0.811,1.78,1.667c0.154-0.172,0.313-0.342,0.471-0.509  C39.145,14.406,40.045,13.447,40.003,12.251z M60.846,12.029l0.618-1.123l-0.024,1.281c-0.022,1.197,0.895,2.141,1.782,3.054  c0.144,0.148,0.288,0.298,0.431,0.45c0.655-0.796,1.228-1.351,1.651-1.56c0.604-0.298,1.423-0.493,2.311-0.618  c0.232-1.387,0.292-2.422,0.142-2.902c-0.59-1.883-3.464-4.751-4.089-5.359c-0.851,0.191-4.801,1.132-6.288,2.429  c-0.414,0.361-0.962,1.418-1.544,2.919c0.41,0.377,0.762,0.761,1.006,1.135c0.255,0.391,0.463,1.145,0.622,2.144  c0.105-0.031,0.212-0.062,0.316-0.091C59.003,13.439,60.269,13.078,60.846,12.029z"/><text x="0" y="115" fill="#000000" font-size="5px" font-weight="bold" font-family="'Helvetica Neue', Helvetica, Arial-Unicode, Arial, Sans-serif">Created by Cléa Lautrey</text><text x="0" y="120" fill="#000000" font-size="5px" font-weight="bold" font-family="'Helvetica Neue', Helvetica, Arial-Unicode, Arial, Sans-serif">from the Noun Project</text></svg>